<svg xmlns="http://www.w3.org/2000/svg" viewBox="0 0 160 40" role="img" aria-labelledby="title">
  <title>HOSSync</title>
  <rect width="160" height="40" rx="10" fill="#17312d"/>
  <path d="M18 10h14a6 6 0 0 1 0 12h-8v8h-6zm6 6v4h8a2 2 0 0 0 0-4z" fill="#f4efe2"/>
  <path d="M47 29V11h6v7h8v-7h6v18h-6v-6h-8v6zm27 0V11h8c5 0 8 2 8 6 0 2-1 4-3 5 2 1 4 3 4 6 0 4-3 7-8 7zm6-11h2c2 0 3-1 3-2s-1-2-3-2h-2zm0 6h3c2 0 3-1 3-2s-1-2-3-2h-3zm18 5V11h6l8 10V11h6v18h-5l-9-11v11zm27 0V11h6v18z" fill="#f4efe2"/>
</svg>
