<?xml version="1.0" encoding="utf-8"?>
<!DOCTYPE svg PUBLIC "-//W3C//DTD SVG 1.0//EN" "http://www.w3.org/TR/2001/REC-SVG-20010904/DTD/svg10.dtd">
<svg version="1.0" xmlns="http://www.w3.org/2000/svg" width="1490px" height="429px" viewBox="0 0 1490 429" preserveAspectRatio="xMidYMid meet">
 <g fill="#000000" fill-rule="evenodd">
  <path d="M1088.46 403.28 C1055.47 400.75 1032.11 390.97 1011.83 371.32 C992.18 352.22 981.68 328.15 980.42 298.87 L979.94 287.98 1001.57 288.21 L1023.19 288.45 1023.66 297.13 C1025.01 320.18 1035.03 337.22 1053.89 348.67 C1066.36 356.24 1076.07 358.29 1102.58 358.85 C1124.21 359.24 1133.20 358.61 1143.94 355.85 C1165.96 350.17 1183.79 332.65 1189.24 311.34 C1191.21 303.84 1191.37 291.06 1189.71 282.93 C1186 265.33 1171.17 248.52 1153.17 241.57 C1142.36 237.39 1136.76 236.84 1102.11 236.44 C1073.94 236.13 1069.60 235.89 1062.02 234.39 C1033.61 228.79 1010.64 214.58 994.46 192.56 C975.60 167.15 970.16 130.61 980.50 99.68 C986.02 83.26 993.04 71.66 1004.88 59.43 C1023.59 40.01 1045.60 29.83 1075.44 26.75 C1087.75 25.49 1128 26.20 1137.62 27.86 C1182.85 35.75 1214.26 65.82 1223.65 110.09 C1224.99 116.80 1226.17 133.30 1225.70 140.71 L1225.46 145.21 1203.92 145.13 L1182.37 145.13 1181.98 133.53 C1181.42 119.88 1179.77 112.62 1174.95 102.60 C1172.27 96.99 1170.53 94.62 1164.54 88.71 C1156.25 80.58 1148.75 76.16 1138.33 73.40 C1124.44 69.61 1078.51 69.61 1064.23 73.32 C1042.68 78.92 1026.66 94.70 1021.06 115.85 C1018.85 124.14 1018.85 138.50 1021.06 146.79 C1026.35 166.91 1040.87 182.15 1061.07 188.62 C1066.20 190.27 1068.41 190.43 1099.35 190.99 C1117.34 191.30 1135.10 192.01 1138.81 192.48 C1187.58 199.03 1222.46 229.97 1232.41 275.59 C1234.38 284.74 1234.46 307.08 1232.41 316.31 C1223.49 358.06 1193.82 388.76 1152.38 399.25 C1137.39 403.04 1108.50 404.86 1088.46 403.28 "/>
  <path d="M252.54 346.06 L252.54 289.63 274.25 289.63 L295.95 289.63 295.95 346.06 L295.95 402.49 274.25 402.49 L252.54 402.49 252.54 346.06 "/>
  <path d="M456.55 401.94 C456.31 401.62 456.15 364.69 456.15 319.86 L456.15 238.34 277.40 238.34 C179.07 238.34 98.57 238.57 98.57 238.89 C98.57 239.20 107.73 248.44 118.93 259.41 L139.29 279.30 125.48 292.71 C117.83 300.05 111.43 306.13 111.28 306.13 C111.04 306.05 90.44 285.93 65.58 261.30 L20.28 216.48 65.03 171.97 C89.65 147.42 110.01 127.38 110.33 127.22 C110.57 127.14 117.04 133.14 124.69 140.48 L138.50 153.89 117.20 174.65 C105.52 186.09 96.28 195.56 96.68 195.72 C97.07 195.96 178.12 195.96 276.77 195.88 L456.08 195.64 456.31 112.22 L456.55 28.81 478.65 28.81 L500.74 28.81 500.90 215.61 L501.14 402.49 479.04 402.49 C466.89 402.49 456.71 402.25 456.55 401.94 "/>
  <path d="M725.43 402.02 C724.24 401.78 719.51 401.07 714.93 400.44 C684.31 396.18 653.93 383.31 628.04 363.74 C619.28 357.11 603.42 341.48 595.84 332.17 C555.67 282.37 543.60 217.42 563.41 157.84 C573.74 126.74 588.50 102.75 610.84 80.50 C625.91 65.35 640.67 54.93 660.08 45.38 C702.86 24.31 749.42 19.89 794.01 32.75 C825.18 41.75 850.28 56.43 873.80 79.55 C891.47 96.91 902.13 111.75 912.78 133.77 C925.49 160.05 931.25 185.30 931.33 214.27 C931.33 239.52 927.62 259.41 918.62 281.98 C908.76 307.08 895.74 326.73 876.40 346.06 C845.31 377.08 807.90 395.62 765.28 401.23 C756.36 402.41 730.08 402.96 725.43 402.02 M734.11 358.37 C687.70 354.82 647.38 331.23 622.20 292.79 C606.42 268.72 598.68 242.84 598.68 214.66 C598.76 183.17 608.31 154.45 627.41 128.56 C634.20 119.41 651.48 102.44 660.56 96.05 C668.61 90.36 684.55 81.76 692.99 78.60 C737.50 61.95 786.99 68.66 826.52 96.83 C834.49 102.52 850.52 118.30 856.75 126.67 C870.01 144.26 880.03 166.05 883.82 185.62 C893.21 234.47 878.85 281.43 844.12 315.84 C831.50 328.31 818.63 337.46 803.56 344.64 C781.70 354.98 756.29 360.03 734.11 358.37 "/>
  <path d="M1356.39 292.32 L1343.60 279.22 1364.44 258.78 L1385.35 238.34 1333.34 238.34 L1281.34 238.34 1261.53 218.05 C1250.64 206.93 1241.64 197.54 1241.48 197.14 C1241.32 196.75 1272.66 196.51 1313.93 196.51 C1353.86 196.51 1386.62 196.27 1386.62 196.04 C1386.62 195.80 1377.07 186.25 1365.47 174.73 L1344.39 153.81 1358.20 140.48 L1372.02 127.14 1378.33 133.22 C1381.80 136.53 1402.16 156.66 1423.63 177.88 L1462.69 216.48 1443.36 235.34 C1407.37 270.46 1371.62 304.55 1370.44 305.02 C1369.65 305.26 1364.75 300.76 1356.39 292.32 "/>
  <path d="M252.54 86.73 L252.54 28.33 274.40 28.57 L296.34 28.81 296.50 86.97 L296.74 145.21 274.64 145.21 L252.54 145.21 252.54 86.73 "/>
 </g>

</svg>
